<svg xmlns="http://www.w3.org/2000/svg" viewBox="0 0 64 64">
  <defs>
    <linearGradient id="heartFill" x1="10" y1="12" x2="54" y2="52" gradientUnits="userSpaceOnUse">
      <stop offset="0" stop-color="#8f2a4a" />
      <stop offset="1" stop-color="#6e1834" />
    </linearGradient>
    <filter id="softShadow" x="-20%" y="-20%" width="140%" height="140%">
      <feDropShadow dx="0" dy="1.2" stdDeviation="1.2" flood-color="#4f1d2d" flood-opacity="0.25" />
    </filter>
  </defs>

  <rect x="4" y="4" width="56" height="56" rx="16" fill="#f7efe6" />

  <g transform="translate(32 32) scale(1.12) translate(-32 -32)">
    <path
      d="M32 52c-.8 0-1.6-.2-2.3-.7C18.4 43.9 12 36.9 12 28.6c0-6.7 5.1-11.6 11.5-11.6 3.7 0 6.6 1.6 8.5 4.4 1.9-2.8 4.8-4.4 8.5-4.4C46.9 17 52 21.9 52 28.6c0 8.3-6.4 15.3-17.7 22.7-.7.5-1.5.7-2.3.7z"
      fill="url(#heartFill)"
      filter="url(#softShadow)"
    />

  </g>

</svg>
